<?xml version="1.0" standalone="no"?>
<!DOCTYPE svg PUBLIC "-//W3C//DTD SVG 20010904//EN" "http://www.w3.org/TR/2001/REC-SVG-20010904/DTD/svg10.dtd">
<!-- Created using Krita: https://krita.org -->
<svg xmlns="http://www.w3.org/2000/svg" 
    xmlns:xlink="http://www.w3.org/1999/xlink"
    xmlns:krita="http://krita.org/namespaces/svg/krita"
    xmlns:sodipodi="http://sodipodi.sourceforge.net/DTD/sodipodi-0.dtd"
    width="36.864pt"
    height="7.2pt"
    viewBox="0 0 36.864 7.2">
<defs/>
<g id="group0" transform="matrix(0.144 0 0 0.144 0 0)" fill="none">
  <path id="shape0" transform="translate(2.43470588235294, 0.949851690245421)" fill="none" stroke="#b898d0" stroke-width="2" stroke-linecap="butt" stroke-linejoin="miter" stroke-miterlimit="2" d="M36.3653 40.0401C35.8253 40.0401 35.7753 39.8801 36.2153 39.5601C43.8153 33.9601 44.6653 23.3701 42.6853 14.7301C40.3553 4.49015 32.2053 -0.0298517 22.2253 0.00014831C5.74529 0.0401483 -1.33471 13.0501 0.855294 28.0101C1.56863 32.8635 3.84529 36.6868 7.68529 39.4801C8.16529 39.8335 8.10529 40.0135 7.50529 40.0201L2.18529 40.0601C0.925294 40.0735 0.228627 40.7035 0.0952941 41.9501C-0.0247059 43.0768 -0.0313725 44.2435 0.0752941 45.4501C0.168627 46.5168 0.748627 47.0501 1.81529 47.0501L16.3253 47.0501C16.833 47.0495 17.3275 46.8884 17.7371 46.5902C18.1467 46.292 18.4508 45.8717 18.6053 45.3901C19.3953 42.8901 18.8853 40.1501 16.7653 38.5501C13.8253 36.3368 11.9186 33.5768 11.0453 30.2701C9.46529 24.3101 9.53529 15.6401 14.2053 11.1401C17.3386 8.12015 21.362 7.33348 26.2753 8.78015C34.5153 11.2101 34.6053 23.4001 32.9453 30.2101C31.9453 34.2901 29.4253 36.4501 26.4953 39.2001C25.142 40.4735 24.6586 42.3001 25.0453 44.6801C25.2853 46.1401 26.2053 47.0801 27.7053 47.0701C32.4253 47.0235 37.152 47.0301 41.8853 47.0901C42.7053 47.0968 43.2486 46.7168 43.5153 45.9501C44.0753 44.3635 44.0886 42.7835 43.5553 41.2101C43.2886 40.4368 42.752 40.0501 41.9453 40.0501L36.3653 40.0401" sodipodi:nodetypes="ccccccccccccccccccccccccccc"/>
  <path id="shape1" transform="translate(135.55, 1.49)" fill="none" stroke="#808080" stroke-width="2" stroke-linecap="butt" stroke-linejoin="miter" stroke-miterlimit="2" d="M23.44 10.62C23.44 8.75594 22.9492 6.92432 22.0172 5.31C21.0852 3.69568 19.7443 2.35484 18.13 1.42281C16.5157 0.49078 14.6841 -1.11022e-15 12.82 0L10.62 1.55431e-15C7.80448 7.77156e-15 5.1014 1.11965 3.11053 3.11053C1.11965 5.1014 0 7.80448 0 10.62L0 36.32C0 39.1355 1.11965 41.8386 3.11053 43.8295C5.1014 45.8203 7.80448 46.94 10.62 46.94L12.82 46.94C15.6355 46.94 18.3386 45.8203 20.3295 43.8295C22.3203 41.8386 23.44 39.1355 23.44 36.32L23.44 10.62" sodipodi:nodetypes="cccccccccccccc"/>
  <path id="shape2" transform="translate(234.479857121015, 1.74999763056552)" fill="none" stroke="#808080" stroke-width="2" stroke-linecap="butt" stroke-linejoin="miter" stroke-miterlimit="2" d="M6.26014 2.6C6.26014 2.50721 6.29704 2.41813 6.36266 2.35251C6.42827 2.2869 6.51735 2.25 6.61014 2.25L8.59014 2.25C8.65512 2.25024 8.7189 2.23238 8.7743 2.19843C8.8297 2.16448 8.87457 2.11577 8.90386 2.05777C8.93315 1.99977 8.94571 1.93474 8.94014 1.87L8.80014 0.320002C8.79262 0.232498 8.75242 0.150954 8.6876 0.0916899C8.62278 0.0324263 8.53797 -0.000320808 8.45014 2.36943e-06L0.350143 2.36943e-06C0.287563 -2.31787e-05 0.226107 0.0167356 0.172203 0.0485257C0.118299 0.0803157 0.0738949 0.125989 0.0436355 0.180766C0.0133762 0.235544 -0.00164512 0.297448 0.000142879 0.360002L0.0501429 1.89C0.0526612 1.97935 0.0893129 2.06443 0.152517 2.12763C0.21572 2.19083 0.300795 2.22748 0.390143 2.23L2.45014 2.26C2.54119 2.2626 2.62772 2.30065 2.69119 2.36598C2.75466 2.43132 2.79018 2.51892 2.79014 2.61L2.77014 12.36C2.77014 12.4528 2.80704 12.5419 2.87266 12.6075C2.93827 12.6731 3.02735 12.71 3.12014 12.71L5.91014 12.73C5.97158 12.73 6.03194 12.7138 6.08514 12.6831C6.13835 12.6524 6.18254 12.6082 6.21325 12.555C6.24397 12.5018 6.26014 12.4414 6.26014 12.38L6.26014 2.6" sodipodi:nodetypes="cccccccccccccccccccccccccccc"/>
  <path id="shape3" transform="translate(243.92, 1.74970588235294)" fill="none" stroke="#808080" stroke-width="2" stroke-linecap="butt" stroke-linejoin="miter" stroke-miterlimit="2" d="M3.83 9.26029L4.08 12.1503C4.0926 12.3087 4.16559 12.4565 4.28424 12.5641C4.40289 12.6716 4.55863 12.731 4.72 12.7303L6.43 12.7403C6.60456 12.7396 6.77292 12.6762 6.9035 12.5622C7.03408 12.4482 7.11817 12.2911 7.14 12.1203C7.23333 11.3336 7.35667 10.5403 7.51 9.74029C7.51667 9.70029 7.54 9.68029 7.58 9.68029L7.58 9.68029C7.72667 9.68029 7.80333 9.75363 7.81 9.90029C7.84333 10.6136 7.89333 11.3036 7.96 11.9703C8.01333 12.4836 8.29667 12.737 8.81 12.7303L11.08 12.7303C11.4 12.7303 11.56 12.5703 11.56 12.2503L11.56 0.360294C11.56 0.120294 11.4367 0.000294118 11.19 0.000294118L7.09 0.000294118C7.00551 -0.000385373 6.92311 0.0303082 6.85731 0.0869666C6.79152 0.143625 6.74643 0.222713 6.73 0.310294L5.77 5.26029C5.57667 6.25363 5.42667 6.24696 5.32 5.24029L4.78 0.220294C4.775 0.165496 4.74961 0.11452 4.7089 0.0775054C4.66818 0.0404909 4.61503 0.0200663 4.56 0.0202941L0.32 0.000294118C0.106667 -0.00637255 0 0.100294 0 0.320294L0.11 12.2603C0.112616 12.3858 0.164373 12.5054 0.254076 12.5933C0.343779 12.6811 0.464456 12.7303 0.59 12.7303L2.56 12.7403C2.88 12.7403 3.05 12.5803 3.07 12.2603C3.12333 11.2536 3.26 10.2436 3.48 9.23029C3.64 8.47029 3.75667 8.48029 3.83 9.26029" sodipodi:nodetypes="cccccccccccccccccccccccccccccccccc"/>
  <path id="shape4" transform="translate(51.52, 2)" fill="none" stroke="#808080" stroke-width="2" stroke-linecap="butt" stroke-linejoin="miter" stroke-miterlimit="2" d="M22.78 24.64C22.74 31.5467 22.73 38.5767 22.75 45.73C22.75 45.91 22.8367 46 23.01 46L30.98 46C31.14 46 31.22 45.9167 31.22 45.75L31.22 0.5C31.22 0.166667 31.0567 0 30.73 0L19.74 0C19.4133 0 19.23 0.16 19.19 0.48L15.76 25.25C15.5733 26.5633 15.4 26.56 15.24 25.24L12.19 0.57C12.1433 0.19 11.93 0 11.55 0L0.61 0C0.203333 0 -7.10543e-15 0.206667 0 0.62L0 45.76C-7.10543e-15 45.92 0.08 46 0.24 46L7.95 46C8.01988 45.9999 8.08712 45.9718 8.13746 45.9214C8.1878 45.8711 8.21741 45.8024 8.22 45.73C8.26 38.5033 8.22667 31.2833 8.12 24.07C8.12 23.9033 8.2 23.8133 8.36 23.8L8.37 23.8C8.53667 23.7933 8.63 23.87 8.65 24.03C9.57667 31.1767 10.5333 38.3033 11.52 45.41C11.5733 45.8033 11.8 46 12.2 46L18.74 46C18.8871 45.9992 19.0289 45.9461 19.1391 45.8506C19.2493 45.7551 19.3207 45.6234 19.34 45.48C20.3467 38.5133 21.4 31.5833 22.5 24.69C22.52 24.5833 22.5833 24.5367 22.69 24.55L22.7 24.55C22.76 24.5567 22.7867 24.5867 22.78 24.64" sodipodi:nodetypes="ccccccccccccccccccccccccccccccccc"/>
  <path id="shape5" transform="translate(86, 2)" fill="none" stroke="#808080" stroke-width="2" stroke-linecap="butt" stroke-linejoin="miter" stroke-miterlimit="2" d="M8.49 21.28C8.49 19.5933 8.69 19.57 9.09 21.21L15.06 45.47C15.1467 45.8233 15.37 46 15.73 46L23.75 46C23.8826 46 24.0098 45.9473 24.1036 45.8536C24.1973 45.7598 24.25 45.6326 24.25 45.5L24.25 0.25C24.25 0.183721 24.2236 0.120089 24.1768 0.0732233C24.1299 0.0263572 24.0663 0 24 0L16.25 0C16.0833 0 16 0.0833333 16 0.25C16.0133 6.55667 15.9933 12.5133 15.94 18.12C15.9067 20.9733 15.61 21 15.05 18.2C14.0567 13.2733 12.72 7.40667 11.04 0.6C10.94 0.2 10.6867 0 10.28 0L0.5 0C0.166667 0 0 0.166667 0 0.5L0 45.5C0 45.6326 0.0527144 45.7598 0.146447 45.8536C0.240179 45.9473 0.367443 46 0.5 46L7.99 46C8.31667 46 8.48 45.8367 8.48 45.51L8.49 21.28" sodipodi:nodetypes="cccccccccccccccccccccccc"/>
  <path id="shape6" transform="translate(113.52, 2)" fill="none" stroke="#808080" stroke-width="2" stroke-linecap="butt" stroke-linejoin="miter" stroke-miterlimit="2" d="M9.22 0.37C9.22 0.271908 9.18099 0.177732 9.11163 0.10837C9.04227 0.0390086 8.94809 2.66454e-15 8.85 0L0.37 0C0.305056 -8.88178e-16 0.241243 0.0170987 0.185 0.0495706C0.128757 0.0820425 0.0820425 0.128757 0.0495706 0.185C0.0170987 0.241243 0 0.305056 0 0.37L0 45.63C0 45.6949 0.0170987 45.7588 0.0495706 45.815C0.0820425 45.8712 0.128757 45.918 0.185 45.9504C0.241243 45.9829 0.305056 46 0.37 46L8.85 46C8.94809 46 9.04227 45.961 9.11163 45.8916C9.18099 45.8223 9.22 45.7281 9.22 45.63L9.22 0.37" sodipodi:nodetypes="ccccccccccccccc"/>
  <path id="shape7" transform="translate(159.787777777778, 2)" fill="none" stroke="#808080" stroke-width="2" stroke-linecap="butt" stroke-linejoin="miter" stroke-miterlimit="2" d="M13.1322 26.03C12.7989 29.0567 12.4556 29.0567 12.1022 26.03L9.10222 0.34C9.07556 0.113333 8.94556 0 8.71222 0L0.142222 0C0.0355556 0 -0.0111111 0.0533333 0.00222222 0.16L6.82222 45.47C6.87556 45.8233 7.08222 46 7.44222 46L17.4622 46C17.5978 46.0011 17.7294 45.9519 17.8324 45.8618C17.9354 45.7717 18.0029 45.6467 18.0222 45.51L24.8522 0.22C24.8581 0.185365 24.8532 0.149765 24.838 0.117609C24.8229 0.0854523 24.7981 0.0581231 24.7669 0.0390047C24.7357 0.0198864 24.6993 0.00980194 24.6622 0.01L16.7322 0C16.5722 0 16.4789 0.08 16.4522 0.24C15.1722 8.98 14.0656 17.5767 13.1322 26.03" sodipodi:nodetypes="cccccccccccccccccc"/>
  <path id="shape8" transform="translate(186, 2)" fill="none" stroke="#808080" stroke-width="2" stroke-linecap="butt" stroke-linejoin="miter" stroke-miterlimit="2" d="M9.25 7.81C9.25 7.72516 9.28374 7.64371 9.34373 7.58373C9.40371 7.52374 9.48516 7.49 9.57 7.49L20.92 7.48C20.9762 7.48 21.0314 7.46521 21.08 7.43713C21.1286 7.40904 21.169 7.36864 21.1971 7.32C21.2252 7.27136 21.24 7.21617 21.24 7.16L21.24 0.32C21.24 0.263832 21.2252 0.208643 21.1971 0.16C21.169 0.111357 21.1286 0.0709556 21.08 0.0428719C21.0314 0.0147881 20.9762 -3.77476e-15 20.92 0L0.32 0C0.235163 1.77636e-15 0.153714 0.0337372 0.0937258 0.0937258C0.0337372 0.153714 0 0.235163 0 0.32L0 45.68C0 45.7648 0.0337372 45.8463 0.0937258 45.9063C0.153714 45.9663 0.235163 46 0.32 46L20.92 46C20.9762 46 21.0314 45.9852 21.08 45.9571C21.1286 45.929 21.169 45.8886 21.1971 45.84C21.2252 45.7914 21.24 45.7362 21.24 45.68L21.25 38.84C21.25 38.7552 21.2163 38.6737 21.1563 38.6137C21.0963 38.5537 21.0148 38.52 20.93 38.52L9.56 38.51C9.47516 38.51 9.39371 38.4763 9.33373 38.4163C9.27374 38.3563 9.24 38.2748 9.24 38.19L9.25 25.81C9.25 25.7252 9.28374 25.6437 9.34373 25.5837C9.40371 25.5237 9.48516 25.49 9.57 25.49L18.41 25.48C18.4948 25.48 18.5763 25.4463 18.6363 25.3863C18.6963 25.3263 18.73 25.2448 18.73 25.16L18.74 18.33C18.74 18.2738 18.7252 18.2186 18.6971 18.17C18.669 18.1214 18.6286 18.081 18.58 18.0529C18.5314 18.0248 18.4762 18.01 18.42 18.01L9.56 17.99C9.47516 17.99 9.39371 17.9563 9.33373 17.8963C9.27374 17.8363 9.24 17.7548 9.24 17.67L9.25 7.81" sodipodi:nodetypes="ccccccccccccccccccccccccccccccccccccccccc"/>
  <path id="shape9" transform="translate(209.52, 2)" fill="none" stroke="#808080" stroke-width="2" stroke-linecap="butt" stroke-linejoin="miter" stroke-miterlimit="2" d="M9.27 21.96L15.03 45.47C15.0679 45.6215 15.1555 45.7561 15.2787 45.8521C15.4019 45.9481 15.5538 46.0002 15.71 46L23.73 46C24.0567 46 24.22 45.8333 24.22 45.5L24.22 0.25C24.2201 0.185415 24.1951 0.123258 24.1503 0.076667C24.1056 0.0300762 24.0445 0.00258338 23.98 0L16.24 0C16.1764 5.32907e-15 16.1153 0.0253029 16.0703 0.0702944C16.0253 0.115286 16 0.176372 16 0.24L15.99 18.22C15.99 20.6333 15.7167 20.6667 15.17 18.32L11.02 0.57C10.9333 0.19 10.6933 0 10.3 0L0.61 0C0.203333 0 0 0.206667 0 0.62L0 45.76C-2.84217e-14 45.8236 0.0253029 45.8847 0.0702944 45.9297C0.115286 45.9747 0.176372 46 0.24 46L8.23 46C8.39 46 8.47 45.9167 8.47 45.75L8.49 22.05C8.49667 19.8967 8.75667 19.8667 9.27 21.96" sodipodi:nodetypes="ccccccccccccccccccccccccc"/>
  <path id="shape10" transform="translate(144.74, 8.98)" fill="none" stroke="#808080" stroke-width="2" stroke-linecap="butt" stroke-linejoin="miter" stroke-miterlimit="2" d="M5.24 2.57C5.24 1.88866 4.96905 1.23452 4.48726 0.752736C4.00548 0.270952 3.35134 1.77636e-15 2.67 0L2.57 0C1.88866 1.77636e-15 1.23452 0.270952 0.752736 0.752736C0.270952 1.23452 0 1.88866 0 2.57L0 29.43C0 30.1113 0.270952 30.7655 0.752736 31.2473C1.23452 31.729 1.88866 32 2.57 32L2.67 32C3.35134 32 4.00548 31.729 4.48726 31.2473C4.96905 30.7655 5.24 30.1113 5.24 29.43L5.24 2.57" sodipodi:nodetypes="ccccccccccccc"/>
 </g><path id="shape11" transform="matrix(0.144 0 0 0.144 0.458999971225457 -10.6379993331076)" fill="#ffffff" stroke-opacity="0" stroke="#000000" stroke-width="0" stroke-linecap="square" stroke-linejoin="bevel" d="M0 0L256 0L256 50L0 50ZM38.8 40.99C38.26 40.99 38.21 40.83 38.65 40.51C46.25 34.91 47.1 24.32 45.12 15.68C42.79 5.44 34.64 0.92 24.66 0.95C8.18 0.99 1.1 14 3.29 28.96C4.00333 33.8133 6.28 37.6367 10.12 40.43C10.6 40.7833 10.54 40.9633 9.94 40.97L4.62 41.01C3.36 41.0233 2.66333 41.6533 2.53 42.9C2.41 44.0267 2.40333 45.1933 2.51 46.4C2.60333 47.4667 3.18333 48 4.25 48L18.76 48C19.2677 47.9994 19.7622 47.8383 20.1718 47.5401C20.5814 47.2418 20.8855 46.8215 21.04 46.34C21.83 43.84 21.32 41.1 19.2 39.5C16.26 37.2867 14.3533 34.5267 13.48 31.22C11.9 25.26 11.97 16.59 16.64 12.09C19.7733 9.07 23.7967 8.28333 28.71 9.73C36.95 12.16 37.04 24.35 35.38 31.16C34.38 35.24 31.86 37.4 28.93 40.15C27.5767 41.4233 27.0933 43.25 27.48 45.63C27.72 47.09 28.64 48.03 30.14 48.02C34.86 47.9733 39.5867 47.98 44.32 48.04C45.14 48.0467 45.6833 47.6667 45.95 46.9C46.51 45.3133 46.5233 43.7333 45.99 42.16C45.7233 41.3867 45.1867 41 44.38 41ZM158.99 12.11C158.99 10.2459 158.499 8.41432 157.567 6.8C156.635 5.18568 155.294 3.84484 153.68 2.91281C152.066 1.98078 150.234 1.49 148.37 1.49L146.17 1.49C143.354 1.49 140.651 2.60965 138.661 4.60053C136.67 6.5914 135.55 9.29448 135.55 12.11L135.55 37.81C135.55 40.6255 136.67 43.3286 138.661 45.3195C140.651 47.3103 143.354 48.43 146.17 48.43L148.37 48.43C151.186 48.43 153.889 47.3103 155.879 45.3195C157.87 43.3286 158.99 40.6255 158.99 37.81ZM240.74 4.35C240.74 4.25721 240.777 4.16813 240.843 4.10251C240.908 4.0369 240.997 4 241.09 4L243.07 4C243.135 4.00024 243.199 3.98238 243.254 3.94843C243.31 3.91448 243.354 3.86577 243.384 3.80777C243.413 3.74976 243.426 3.68474 243.42 3.62L243.28 2.07C243.272 1.9825 243.232 1.90095 243.167 1.84169C243.103 1.78242 243.018 1.74968 242.93 1.75L234.83 1.75C234.767 1.74997 234.706 1.76673 234.652 1.79852C234.598 1.83031 234.554 1.87599 234.523 1.93076C234.493 1.98554 234.478 2.04745 234.48 2.11L234.53 3.64C234.533 3.72935 234.569 3.81442 234.632 3.87763C234.696 3.94083 234.781 3.97748 234.87 3.98L236.93 4.01C237.021 4.0126 237.108 4.05065 237.171 4.11598C237.235 4.18132 237.27 4.26891 237.27 4.36L237.25 14.11C237.25 14.2028 237.287 14.2919 237.353 14.3575C237.418 14.4231 237.507 14.46 237.6 14.46L240.39 14.48C240.451 14.48 240.512 14.4638 240.565 14.4331C240.618 14.4024 240.662 14.3582 240.693 14.305C240.724 14.2518 240.74 14.1914 240.74 14.13ZM247.75 11.01L248 13.9C248.013 14.0584 248.086 14.2062 248.204 14.3138C248.323 14.4213 248.479 14.4807 248.64 14.48L250.35 14.49C250.525 14.4893 250.693 14.426 250.823 14.3119C250.954 14.1979 251.038 14.0408 251.06 13.87C251.153 13.0833 251.277 12.29 251.43 11.49C251.437 11.45 251.46 11.43 251.5 11.43L251.5 11.43C251.647 11.43 251.723 11.5033 251.73 11.65C251.763 12.3633 251.813 13.0533 251.88 13.72C251.933 14.2333 252.217 14.4867 252.73 14.48L255 14.48C255.32 14.48 255.48 14.32 255.48 14L255.48 2.11C255.48 1.87 255.357 1.75 255.11 1.75L251.01 1.75C250.926 1.74932 250.843 1.78001 250.777 1.83667C250.712 1.89333 250.666 1.97242 250.65 2.06L249.69 7.01C249.497 8.00333 249.347 7.99667 249.24 6.99L248.7 1.97C248.695 1.9152 248.67 1.86423 248.629 1.82721C248.588 1.7902 248.535 1.76977 248.48 1.77L244.24 1.75C244.027 1.74333 243.92 1.85 243.92 2.07L244.03 14.01C244.033 14.1355 244.084 14.2551 244.174 14.343C244.264 14.4308 244.384 14.48 244.51 14.48L246.48 14.49C246.8 14.49 246.97 14.33 246.99 14.01C247.043 13.0033 247.18 11.9933 247.4 10.98C247.56 10.22 247.677 10.23 247.75 11.01ZM74.3 26.64C74.26 33.5467 74.25 40.5767 74.27 47.73C74.27 47.91 74.3567 48 74.53 48L82.5 48C82.66 48 82.74 47.9167 82.74 47.75L82.74 2.5C82.74 2.16667 82.5767 2 82.25 2L71.26 2C70.9333 2 70.75 2.16 70.71 2.48L67.28 27.25C67.0933 28.5633 66.92 28.56 66.76 27.24L63.71 2.57C63.6633 2.19 63.45 2 63.07 2L52.13 2C51.7233 2 51.52 2.20667 51.52 2.62L51.52 47.76C51.52 47.92 51.6 48 51.76 48L59.47 48C59.5399 47.9999 59.6071 47.9718 59.6575 47.9214C59.7078 47.8711 59.7374 47.8024 59.74 47.73C59.78 40.5033 59.7467 33.2833 59.64 26.07C59.64 25.9033 59.72 25.8133 59.88 25.8L59.89 25.8C60.0567 25.7933 60.15 25.87 60.17 26.03C61.0967 33.1767 62.0533 40.3033 63.04 47.41C63.0933 47.8033 63.32 48 63.72 48L70.26 48C70.4071 47.9992 70.5489 47.9461 70.6591 47.8506C70.7693 47.7551 70.8407 47.6234 70.86 47.48C71.8667 40.5133 72.92 33.5833 74.02 26.69C74.04 26.5833 74.1033 26.5367 74.21 26.55L74.22 26.55C74.28 26.5567 74.3067 26.5867 74.3 26.64ZM94.49 23.28C94.49 21.5933 94.69 21.57 95.09 23.21L101.06 47.47C101.147 47.8233 101.37 48 101.73 48L109.75 48C109.883 48 110.01 47.9473 110.104 47.8536C110.197 47.7598 110.25 47.6326 110.25 47.5L110.25 2.25C110.25 2.18372 110.224 2.12009 110.177 2.07322C110.13 2.02636 110.066 2 110 2L102.25 2C102.083 2 102 2.08333 102 2.25C102.013 8.55667 101.993 14.5133 101.94 20.12C101.907 22.9733 101.61 23 101.05 20.2C100.057 15.2733 98.72 9.40667 97.04 2.6C96.94 2.2 96.6867 2 96.28 2L86.5 2C86.1667 2 86 2.16667 86 2.5L86 47.5C86 47.6326 86.0527 47.7598 86.1464 47.8536C86.2402 47.9473 86.3674 48 86.5 48L93.99 48C94.3167 48 94.48 47.8367 94.48 47.51ZM122.74 2.37C122.74 2.27191 122.701 2.17773 122.632 2.10837C122.562 2.03901 122.468 2 122.37 2L113.89 2C113.825 2 113.761 2.0171 113.705 2.04957C113.649 2.08204 113.602 2.12876 113.57 2.185C113.537 2.24124 113.52 2.30506 113.52 2.37L113.52 47.63C113.52 47.6949 113.537 47.7588 113.57 47.815C113.602 47.8712 113.649 47.918 113.705 47.9504C113.761 47.9829 113.825 48 113.89 48L122.37 48C122.468 48 122.562 47.961 122.632 47.8916C122.701 47.8223 122.74 47.7281 122.74 47.63ZM172.92 28.03C172.587 31.0567 172.243 31.0567 171.89 28.03L168.89 2.34C168.863 2.11333 168.733 2 168.5 2L159.93 2C159.823 2 159.777 2.05333 159.79 2.16L166.61 47.47C166.663 47.8233 166.87 48 167.23 48L177.25 48C177.386 48.0011 177.517 47.9519 177.62 47.8618C177.723 47.7717 177.791 47.6467 177.81 47.51L184.64 2.22C184.646 2.18537 184.641 2.14977 184.626 2.11761C184.611 2.08545 184.586 2.05812 184.555 2.039C184.523 2.01989 184.487 2.0098 184.45 2.01L176.52 2C176.36 2 176.267 2.08 176.24 2.24C174.96 10.98 173.853 19.5767 172.92 28.03ZM195.25 9.81C195.25 9.72516 195.284 9.64371 195.344 9.58373C195.404 9.52374 195.485 9.49 195.57 9.49L206.92 9.48C206.976 9.48 207.031 9.46521 207.08 9.43713C207.129 9.40904 207.169 9.36864 207.197 9.32C207.225 9.27136 207.24 9.21617 207.24 9.16L207.24 2.32C207.24 2.26383 207.225 2.20864 207.197 2.16C207.169 2.11136 207.129 2.07096 207.08 2.04287C207.031 2.01479 206.976 2 206.92 2L186.32 2C186.235 2 186.154 2.03374 186.094 2.09373C186.034 2.15371 186 2.23516 186 2.32L186 47.68C186 47.7648 186.034 47.8463 186.094 47.9063C186.154 47.9663 186.235 48 186.32 48L206.92 48C206.976 48 207.031 47.9852 207.08 47.9571C207.129 47.929 207.169 47.8886 207.197 47.84C207.225 47.7914 207.24 47.7362 207.24 47.68L207.25 40.84C207.25 40.7552 207.216 40.6737 207.156 40.6137C207.096 40.5537 207.015 40.52 206.93 40.52L195.56 40.51C195.475 40.51 195.394 40.4763 195.334 40.4163C195.274 40.3563 195.24 40.2748 195.24 40.19L195.25 27.81C195.25 27.7252 195.284 27.6437 195.344 27.5837C195.404 27.5237 195.485 27.49 195.57 27.49L204.41 27.48C204.495 27.48 204.576 27.4463 204.636 27.3863C204.696 27.3263 204.73 27.2448 204.73 27.16L204.74 20.33C204.74 20.2738 204.725 20.2186 204.697 20.17C204.669 20.1214 204.629 20.081 204.58 20.0529C204.531 20.0248 204.476 20.01 204.42 20.01L195.56 19.99C195.475 19.99 195.394 19.9563 195.334 19.8963C195.274 19.8363 195.24 19.7548 195.24 19.67ZM218.79 23.96L224.55 47.47C224.588 47.6215 224.676 47.7561 224.799 47.8521C224.922 47.9481 225.074 48.0002 225.23 48L233.25 48C233.577 48 233.74 47.8333 233.74 47.5L233.74 2.25C233.74 2.18542 233.715 2.12326 233.67 2.07667C233.626 2.03008 233.565 2.00258 233.5 2L225.76 2C225.696 2 225.635 2.0253 225.59 2.07029C225.545 2.11529 225.52 2.17637 225.52 2.24L225.51 20.22C225.51 22.6333 225.237 22.6667 224.69 20.32L220.54 2.57C220.453 2.19 220.213 2 219.82 2L210.13 2C209.723 2 209.52 2.20667 209.52 2.62L209.52 47.76C209.52 47.8236 209.545 47.8847 209.59 47.9297C209.635 47.9747 209.696 48 209.76 48L217.75 48C217.91 48 217.99 47.9167 217.99 47.75L218.01 24.05C218.017 21.8967 218.277 21.8667 218.79 23.96Z" sodipodi:nodetypes="cccccccccccccccccccccccccccccccccccccccccccccccccccccccccccccccccccccccccccccccccccccccccccccccccccccccccccccccccccccccccccccccccccccccccccccccccccccccccccccccccccccccccccccccccccccccccccccccccccccccccccccccccccccccccccccccccccccccccccccccccccccccccccccccccccccccc"/><path id="shape12" transform="matrix(0.144 0 0 0.144 0.350597647058823 0.136778643395341)" fill="#7030a0" stroke-opacity="0" stroke="#000000" stroke-width="0" stroke-linecap="square" stroke-linejoin="bevel" d="M36.3653 40.0401L41.9453 40.0501C42.752 40.0501 43.2886 40.4368 43.5553 41.2101C44.0886 42.7835 44.0753 44.3635 43.5153 45.9501C43.2486 46.7168 42.7053 47.0968 41.8853 47.0901C37.152 47.0301 32.4253 47.0235 27.7053 47.0701C26.2053 47.0801 25.2853 46.1401 25.0453 44.6801C24.6586 42.3001 25.142 40.4735 26.4953 39.2001C29.4253 36.4501 31.9453 34.2901 32.9453 30.2101C34.6053 23.4001 34.5153 11.2101 26.2753 8.78015C21.362 7.33348 17.3386 8.12015 14.2053 11.1401C9.53529 15.6401 9.46529 24.3101 11.0453 30.2701C11.9186 33.5768 13.8253 36.3368 16.7653 38.5501C18.8853 40.1501 19.3953 42.8901 18.6053 45.3901C18.4508 45.8717 18.1467 46.292 17.7371 46.5902C17.3275 46.8884 16.833 47.0495 16.3253 47.0501L1.81529 47.0501C0.748627 47.0501 0.168627 46.5168 0.0752941 45.4501C-0.0313725 44.2435 -0.0247059 43.0768 0.0952941 41.9501C0.228627 40.7035 0.925294 40.0735 2.18529 40.0601L7.50529 40.0201C8.10529 40.0135 8.16529 39.8335 7.68529 39.4801C3.84529 36.6868 1.56863 32.8635 0.855294 28.0101C-1.33471 13.0501 5.74529 0.0401483 22.2253 0.00014831C32.2053 -0.0298517 40.3553 4.49015 42.6853 14.7301C44.6653 23.3701 43.8153 33.9601 36.2153 39.5601C35.7753 39.8801 35.8253 40.0401 36.3653 40.0401Z" sodipodi:nodetypes="ccccccccccccccccccccccccccc"/><path id="shape13" transform="matrix(0.144 0 0 0.144 19.5192 0.21456)" fill="#000000" stroke-opacity="0" stroke="#000000" stroke-width="0" stroke-linecap="square" stroke-linejoin="bevel" d="M23.44 36.32C23.44 39.1355 22.3203 41.8386 20.3295 43.8295C18.3386 45.8203 15.6355 46.94 12.82 46.94L10.62 46.94C7.80448 46.94 5.1014 45.8203 3.11053 43.8295C1.11965 41.8386 0 39.1355 0 36.32L0 10.62C0 7.80448 1.11965 5.1014 3.11053 3.11053C5.1014 1.11965 7.80448 6.21725e-15 10.62 2.22045e-16L12.82 0C14.6841 -2.22045e-15 16.5157 0.49078 18.13 1.42281C19.7443 2.35484 21.0852 3.69568 22.0172 5.31C22.9492 6.92432 23.44 8.75594 23.44 10.62ZM14.43 10.06C14.43 9.37866 14.159 8.72452 13.6773 8.24274C13.1955 7.76095 12.5413 7.49 11.86 7.49L11.76 7.49C11.0787 7.49 10.4245 7.76095 9.94274 8.24274C9.46095 8.72452 9.19 9.37866 9.19 10.06L9.19 36.92C9.19 37.6013 9.46095 38.2555 9.94274 38.7373C10.4245 39.219 11.0787 39.49 11.76 39.49L11.86 39.49C12.5413 39.49 13.1955 39.219 13.6773 38.7373C14.159 38.2555 14.43 37.6013 14.43 36.92Z" sodipodi:nodetypes="ccccccccccccccccccccccccccc"/><path id="shape14" transform="matrix(0.144 0 0 0.144 33.7650994254261 0.251999658801435)" fill="#000000" stroke-opacity="0" stroke="#000000" stroke-width="0" stroke-linecap="square" stroke-linejoin="bevel" d="M6.26014 2.6L6.26014 12.38C6.26014 12.4414 6.24397 12.5018 6.21325 12.555C6.18254 12.6082 6.13835 12.6524 6.08514 12.6831C6.03194 12.7138 5.97158 12.73 5.91014 12.73L3.12014 12.71C3.02735 12.71 2.93827 12.6731 2.87266 12.6075C2.80704 12.5419 2.77014 12.4528 2.77014 12.36L2.79014 2.61C2.79018 2.51892 2.75466 2.43132 2.69119 2.36598C2.62772 2.30065 2.54119 2.2626 2.45014 2.26L0.390143 2.23C0.300795 2.22748 0.21572 2.19083 0.152517 2.12763C0.0893129 2.06443 0.0526612 1.97935 0.0501429 1.89L0.000142879 0.360002C-0.00164512 0.297448 0.0133762 0.235544 0.0436355 0.180766C0.0738949 0.125989 0.118299 0.0803157 0.172203 0.0485257C0.226107 0.0167356 0.287563 -2.31787e-05 0.350143 2.36943e-06L8.45014 2.36943e-06C8.53797 -0.000320808 8.62278 0.0324263 8.6876 0.0916899C8.75242 0.150954 8.79262 0.232498 8.80014 0.320002L8.94014 1.87C8.94571 1.93474 8.93315 1.99977 8.90386 2.05777C8.87457 2.11577 8.8297 2.16448 8.7743 2.19843C8.7189 2.23238 8.65512 2.25024 8.59014 2.25L6.61014 2.25C6.51735 2.25 6.42827 2.2869 6.36266 2.35251C6.29704 2.41813 6.26014 2.50721 6.26014 2.6Z" sodipodi:nodetypes="cccccccccccccccccccccccccccc"/><path id="shape15" transform="matrix(0.144 0 0 0.144 35.12448 0.251957647058824)" fill="#000000" stroke-opacity="0" stroke="#000000" stroke-width="0" stroke-linecap="square" stroke-linejoin="bevel" d="M3.48 9.23029C3.26 10.2436 3.12333 11.2536 3.07 12.2603C3.05 12.5803 2.88 12.7403 2.56 12.7403L0.59 12.7303C0.464456 12.7303 0.343779 12.6811 0.254076 12.5933C0.164373 12.5054 0.112616 12.3858 0.11 12.2603L0 0.320294C0 0.100294 0.106667 -0.00637255 0.32 0.000294118L4.56 0.0202941C4.61503 0.0200663 4.66818 0.0404909 4.7089 0.0775054C4.74961 0.11452 4.775 0.165496 4.78 0.220294L5.32 5.24029C5.42667 6.24696 5.57667 6.25363 5.77 5.26029L6.73 0.310294C6.74643 0.222713 6.79152 0.143625 6.85731 0.0869666C6.92311 0.0303082 7.00551 -0.000385373 7.09 0.000294118L11.19 0.000294118C11.4367 0.000294118 11.56 0.120294 11.56 0.360294L11.56 12.2503C11.56 12.5703 11.4 12.7303 11.08 12.7303L8.81 12.7303C8.29667 12.737 8.01333 12.4836 7.96 11.9703C7.89333 11.3036 7.84333 10.6136 7.81 9.90029C7.80333 9.75363 7.72667 9.68029 7.58 9.68029L7.58 9.68029C7.54 9.68029 7.51667 9.70029 7.51 9.74029C7.35667 10.5403 7.23333 11.3336 7.14 12.1203C7.11817 12.2911 7.03408 12.4482 6.9035 12.5622C6.77292 12.6762 6.60456 12.7396 6.43 12.7403L4.72 12.7303C4.55863 12.731 4.40289 12.6716 4.28424 12.5641C4.16559 12.4565 4.0926 12.3087 4.08 12.1503L3.83 9.26029C3.75667 8.48029 3.64 8.47029 3.48 9.23029Z" sodipodi:nodetypes="cccccccccccccccccccccccccccccccccc"/><path id="shape16" transform="matrix(0.144 0 0 0.144 7.41888 0.288)" fill="#000000" stroke-opacity="0" stroke="#000000" stroke-width="0" stroke-linecap="square" stroke-linejoin="bevel" d="M22.78 24.64C22.7867 24.5867 22.76 24.5567 22.7 24.55L22.69 24.55C22.5833 24.5367 22.52 24.5833 22.5 24.69C21.4 31.5833 20.3467 38.5133 19.34 45.48C19.3207 45.6234 19.2493 45.7551 19.1391 45.8506C19.0289 45.9461 18.8871 45.9992 18.74 46L12.2 46C11.8 46 11.5733 45.8033 11.52 45.41C10.5333 38.3033 9.57667 31.1767 8.65 24.03C8.63 23.87 8.53667 23.7933 8.37 23.8L8.36 23.8C8.2 23.8133 8.12 23.9033 8.12 24.07C8.22667 31.2833 8.26 38.5033 8.22 45.73C8.21741 45.8024 8.1878 45.8711 8.13746 45.9214C8.08712 45.9718 8.01988 45.9999 7.95 46L0.24 46C0.08 46 -7.10543e-15 45.92 0 45.76L0 0.62C-7.10543e-15 0.206667 0.203333 0 0.61 0L11.55 0C11.93 0 12.1433 0.19 12.19 0.57L15.24 25.24C15.4 26.56 15.5733 26.5633 15.76 25.25L19.19 0.48C19.23 0.16 19.4133 0 19.74 0L30.73 0C31.0567 0 31.22 0.166667 31.22 0.5L31.22 45.75C31.22 45.9167 31.14 46 30.98 46L23.01 46C22.8367 46 22.75 45.91 22.75 45.73C22.73 38.5767 22.74 31.5467 22.78 24.64Z" sodipodi:nodetypes="ccccccccccccccccccccccccccccccccc"/><path id="shape17" transform="matrix(0.144 0 0 0.144 12.384 0.288)" fill="#000000" stroke-opacity="0" stroke="#000000" stroke-width="0" stroke-linecap="square" stroke-linejoin="bevel" d="M8.49 21.28L8.48 45.51C8.48 45.8367 8.31667 46 7.99 46L0.5 46C0.367443 46 0.240179 45.9473 0.146447 45.8536C0.0527144 45.7598 0 45.6326 0 45.5L0 0.5C0 0.166667 0.166667 0 0.5 0L10.28 0C10.6867 0 10.94 0.2 11.04 0.6C12.72 7.40667 14.0567 13.2733 15.05 18.2C15.61 21 15.9067 20.9733 15.94 18.12C15.9933 12.5133 16.0133 6.55667 16 0.25C16 0.0833333 16.0833 0 16.25 0L24 0C24.0663 0 24.1299 0.0263572 24.1768 0.0732233C24.2236 0.120089 24.25 0.183721 24.25 0.25L24.25 45.5C24.25 45.6326 24.1973 45.7598 24.1036 45.8536C24.0098 45.9473 23.8826 46 23.75 46L15.73 46C15.37 46 15.1467 45.8233 15.06 45.47L9.09 21.21C8.69 19.57 8.49 19.5933 8.49 21.28Z" sodipodi:nodetypes="cccccccccccccccccccccccc"/><rect id="shape18" transform="matrix(0.144 0 0 0.144 16.34688 0.288)" fill="#000000" stroke-opacity="0" stroke="#000000" stroke-width="0" stroke-linecap="square" stroke-linejoin="bevel" width="9.22" height="46" rx="0.37" ry="0.37"/><path id="shape19" transform="matrix(0.144 0 0 0.144 23.00944 0.288)" fill="#000000" stroke-opacity="0" stroke="#000000" stroke-width="0" stroke-linecap="square" stroke-linejoin="bevel" d="M13.1322 26.03C14.0656 17.5767 15.1722 8.98 16.4522 0.24C16.4789 0.08 16.5722 0 16.7322 0L24.6622 0.01C24.6993 0.00980194 24.7357 0.0198864 24.7669 0.0390047C24.7981 0.0581231 24.8229 0.0854523 24.838 0.117609C24.8532 0.149765 24.8581 0.185365 24.8522 0.22L18.0222 45.51C18.0029 45.6467 17.9354 45.7717 17.8324 45.8618C17.7294 45.9519 17.5978 46.0011 17.4622 46L7.44222 46C7.08222 46 6.87556 45.8233 6.82222 45.47L0.00222222 0.16C-0.0111111 0.0533333 0.0355556 0 0.142222 0L8.71222 0C8.94556 0 9.07556 0.113333 9.10222 0.34L12.1022 26.03C12.4556 29.0567 12.7989 29.0567 13.1322 26.03Z" sodipodi:nodetypes="cccccccccccccccccc"/><path id="shape20" transform="matrix(0.144 0 0 0.144 26.784 0.288)" fill="#000000" stroke-opacity="0" stroke="#000000" stroke-width="0" stroke-linecap="square" stroke-linejoin="bevel" d="M9.25 7.81L9.24 17.67C9.24 17.7548 9.27374 17.8363 9.33373 17.8963C9.39371 17.9563 9.47516 17.99 9.56 17.99L18.42 18.01C18.4762 18.01 18.5314 18.0248 18.58 18.0529C18.6286 18.081 18.669 18.1214 18.6971 18.17C18.7252 18.2186 18.74 18.2738 18.74 18.33L18.73 25.16C18.73 25.2448 18.6963 25.3263 18.6363 25.3863C18.5763 25.4463 18.4948 25.48 18.41 25.48L9.57 25.49C9.48516 25.49 9.40371 25.5237 9.34373 25.5837C9.28374 25.6437 9.25 25.7252 9.25 25.81L9.24 38.19C9.24 38.2748 9.27374 38.3563 9.33373 38.4163C9.39371 38.4763 9.47516 38.51 9.56 38.51L20.93 38.52C21.0148 38.52 21.0963 38.5537 21.1563 38.6137C21.2163 38.6737 21.25 38.7552 21.25 38.84L21.24 45.68C21.24 45.7362 21.2252 45.7914 21.1971 45.84C21.169 45.8886 21.1286 45.929 21.08 45.9571C21.0314 45.9852 20.9762 46 20.92 46L0.32 46C0.235163 46 0.153714 45.9663 0.0937258 45.9063C0.0337372 45.8463 0 45.7648 0 45.68L0 0.32C0 0.235163 0.0337372 0.153714 0.0937258 0.0937258C0.153714 0.0337372 0.235163 1.9984e-15 0.32 0L20.92 2.22045e-16C20.9762 -3.55271e-15 21.0314 0.0147881 21.08 0.0428719C21.1286 0.0709556 21.169 0.111357 21.1971 0.16C21.2252 0.208643 21.24 0.263832 21.24 0.32L21.24 7.16C21.24 7.21617 21.2252 7.27136 21.1971 7.32C21.169 7.36864 21.1286 7.40904 21.08 7.43713C21.0314 7.46521 20.9762 7.48 20.92 7.48L9.57 7.49C9.48516 7.49 9.40371 7.52374 9.34373 7.58373C9.28374 7.64371 9.25 7.72516 9.25 7.81Z" sodipodi:nodetypes="ccccccccccccccccccccccccccccccccccccccccc"/><path id="shape21" transform="matrix(0.144 0 0 0.144 30.17088 0.288)" fill="#000000" stroke-opacity="0" stroke="#000000" stroke-width="0" stroke-linecap="square" stroke-linejoin="bevel" d="M9.27 21.96C8.75667 19.8667 8.49667 19.8967 8.49 22.05L8.47 45.75C8.47 45.9167 8.39 46 8.23 46L0.24 46C0.176372 46 0.115286 45.9747 0.0702944 45.9297C0.0253029 45.8847 0 45.8236 0 45.76L2.84217e-14 0.62C2.84217e-14 0.206667 0.203333 0 0.61 0L10.3 0C10.6933 0 10.9333 0.19 11.02 0.57L15.17 18.32C15.7167 20.6667 15.99 20.6333 15.99 18.22L16 0.24C16 0.176372 16.0253 0.115286 16.0703 0.0702944C16.1153 0.0253029 16.1764 4.88498e-15 16.24 0L23.98 0C24.0445 0.00258338 24.1056 0.0300762 24.1503 0.076667C24.1951 0.123258 24.2201 0.185415 24.22 0.25L24.22 45.5C24.22 45.8333 24.0567 46 23.73 46L15.71 46C15.5538 46.0002 15.4019 45.9481 15.2787 45.8521C15.1555 45.7561 15.0679 45.6215 15.03 45.47Z" sodipodi:nodetypes="ccccccccccccccccccccccccc"/><rect id="shape22" transform="matrix(0.144 0 0 0.144 20.4645600236967 -8.83187936526748)" fill="#ffffff" stroke-opacity="0" stroke="#000000" stroke-width="0" stroke-linecap="square" stroke-linejoin="bevel" width="5.24" height="32" rx="2.57" ry="2.57"/>
</svg>
