 <svg  version="1.0" xmlns="http://www.w3.org/2000/svg"  width="900.000000pt" height="900.000000pt" viewBox="0 0 900.000000 900.000000"  preserveAspectRatio="xMidYMid meet">  <g transform="translate(0.000000,900.000000) scale(0.100000,-0.100000)" fill="#7c4d9f" stroke="none"> <path d="M4269 8930 c-300 -13 -637 -59 -904 -124 -33 -8 -87 -22 -120 -30 -33 -8 -96 -26 -139 -40 -43 -14 -87 -26 -97 -26 -10 0 -20 -4 -24 -9 -3 -5 -19 -12 -36 -16 -17 -4 -42 -13 -57 -21 -15 -8 -35 -14 -44 -14 -9 0 -20 -4 -23 -10 -3 -5 -14 -10 -23 -10 -9 0 -29 -7 -44 -14 -15 -8 -65 -31 -111 -50 -141 -61 -391 -192 -487 -255 -30 -20 -62 -40 -71 -46 -54 -33 -257 -180 -269 -195 -3 -4 -28 -24 -55 -46 -124 -97 -353 -326 -449 -449 -22 -27 -42 -52 -46 -55 -28 -22 -252 -347 -297 -430 -10 -19 -30 -53 -43 -75 -54 -86 -189 -372 -230 -485 -13 -36 -27 -69 -32 -74 -4 -6 -8 -16 -8 -24 0 -8 -6 -28 -14 -45 -7 -18 -23 -63 -35 -102 -12 -38 -26 -79 -31 -90 -5 -11 -12 -36 -16 -55 -3 -19 -10 -41 -15 -50 -4 -8 -13 -37 -19 -65 -6 -27 -18 -79 -26 -115 -8 -36 -19 -86 -24 -111 -4 -25 -13 -64 -19 -85 -6 -21 -20 -102 -31 -179 -11 -77 -25 -169 -30 -205 -38 -256 -47 -867 -17 -1175 22 -228 35 -332 46 -370 5 -16 13 -55 16 -85 14 -111 133 -547 165 -602 6 -10 10 -23 10 -30 1 -7 9 -31 20 -53 11 -22 19 -44 20 -48 0 -16 146 -321 163 -342 5 -5 26 -41 48 -80 47 -83 62 -108 70 -115 3 -3 18 -25 32 -50 14 -25 34 -54 44 -65 10 -11 25 -31 34 -45 9 -14 39 -54 65 -87 27 -34 60 -77 74 -95 37 -48 294 -306 375 -375 39 -33 102 -83 140 -111 39 -29 75 -56 81 -60 5 -5 29 -20 52 -33 42 -24 57 -43 46 -60 -3 -5 -282 -9 -670 -9 -448 0 -679 -4 -709 -11 -70 -18 -131 -111 -164 -252 -34 -145 -46 -498 -23 -714 20 -200 51 -304 109 -374 53 -63 -42 -59 1534 -59 1613 0 1516 -4 1664 72 122 64 214 215 235 388 22 180 8 677 -20 735 -5 11 -19 45 -31 75 -22 58 -77 145 -140 221 -22 26 -125 123 -230 215 -105 93 -235 212 -288 264 -136 134 -321 343 -366 414 -10 17 -22 33 -25 36 -47 44 -212 344 -275 500 -10 25 -23 59 -30 75 -8 17 -21 55 -30 85 -10 30 -23 73 -31 95 -20 57 -54 188 -69 270 -8 39 -18 90 -23 115 -58 271 -87 633 -87 1085 0 322 13 516 46 715 27 161 61 328 79 384 5 17 19 65 31 106 12 41 25 79 30 85 5 5 9 17 9 28 0 59 162 401 276 582 95 150 254 332 374 428 36 28 70 57 75 63 20 22 293 194 308 194 3 0 43 17 89 39 46 21 115 48 153 61 39 12 79 26 90 31 11 5 38 13 60 18 22 6 67 17 100 26 85 23 235 43 412 57 217 16 592 -11 778 -56 33 -8 80 -20 105 -26 25 -5 54 -14 65 -19 11 -5 51 -19 90 -31 64 -21 144 -54 235 -98 70 -34 247 -144 286 -177 6 -5 44 -37 84 -70 132 -111 297 -313 391 -480 65 -116 179 -356 179 -377 0 -6 7 -24 15 -41 18 -39 75 -216 75 -233 0 -7 7 -34 16 -60 8 -25 19 -67 24 -93 4 -25 16 -82 25 -126 40 -195 85 -691 85 -935 0 -305 -38 -779 -82 -1015 -11 -60 -24 -134 -29 -164 -6 -29 -13 -61 -18 -70 -5 -9 -12 -34 -15 -56 -9 -49 -34 -134 -47 -157 -5 -10 -9 -25 -9 -34 0 -9 -6 -30 -14 -47 -7 -18 -21 -54 -31 -82 -40 -113 -124 -287 -203 -420 -37 -60 -70 -114 -74 -120 -4 -5 -29 -39 -55 -75 -26 -36 -62 -83 -80 -105 -19 -22 -37 -45 -41 -50 -39 -59 -258 -285 -391 -405 -52 -47 -109 -98 -127 -115 -18 -16 -66 -59 -106 -95 -103 -92 -199 -202 -255 -296 -27 -44 -41 -83 -84 -220 -5 -17 -9 -168 -9 -336 0 -352 7 -401 77 -533 51 -97 144 -174 247 -205 39 -12 85 -26 102 -31 18 -5 622 -9 1475 -9 l1444 1 45 22 c120 59 169 254 169 677 0 376 -35 550 -130 654 l-47 51 -696 3 c-669 3 -696 3 -696 21 0 12 26 36 72 67 193 131 456 365 583 520 22 27 54 64 70 84 77 88 210 283 271 395 21 39 42 72 46 73 4 2 8 9 8 15 0 7 7 26 16 42 47 87 84 161 84 167 0 4 14 37 31 75 39 88 44 99 63 153 8 25 21 59 27 75 36 88 113 367 144 520 39 191 47 239 60 350 7 66 16 127 19 135 3 8 12 140 21 293 31 546 -16 1141 -128 1647 -22 96 -67 272 -77 295 -4 11 -24 72 -44 135 -21 63 -44 129 -52 147 -8 17 -14 35 -14 40 0 10 -22 60 -41 95 -5 10 -9 23 -9 29 0 6 -22 57 -50 113 -27 56 -50 105 -50 109 0 4 -13 28 -28 54 -16 27 -50 86 -77 133 -131 233 -301 454 -503 656 -122 123 -181 177 -247 226 -16 12 -32 25 -35 28 -5 7 -125 96 -156 118 -85 56 -174 112 -180 112 -4 0 -15 6 -23 14 -14 13 -49 32 -241 131 -53 28 -179 85 -187 85 -3 0 -19 7 -36 15 -46 21 -190 75 -200 75 -5 0 -23 6 -40 14 -52 23 -305 95 -412 117 -27 6 -81 17 -120 25 -141 29 -286 50 -506 74 -109 12 -531 30 -659 28 -47 -1 -160 -4 -251 -8z"/> </g> </svg> 